HIERARCHY
ROOT root
{
	OFFSET	0	13.1	24.9
	CHANNELS 6  Xposition Yposition Zposition Xrotation Yrotation Zrotation
	JOINT spine_1
	{
		OFFSET	0	9.99999	0
		CHANNELS 3  Xrotation Yrotation Zrotation
		JOINT spine_2
		{
			OFFSET	0	112	-10
			CHANNELS 3  Xrotation Yrotation Zrotation
			JOINT spine_3
			{
				OFFSET	0	206.5	19.3
				CHANNELS 3  Xrotation Yrotation Zrotation
				JOINT spine_4
				{
					OFFSET	0	110.4	14.6
					CHANNELS 3  Xrotation Yrotation Zrotation
					JOINT neck_1
					{
						OFFSET	0	71.8	-50.3
						CHANNELS 3  Xrotation Yrotation Zrotation
						JOINT neck_2
						{
							OFFSET	0	86.2	-25.8
							CHANNELS 3  Xrotation Yrotation Zrotation
							JOINT head_ee
							{
								OFFSET	0	179.8	-8.7
								CHANNELS 3  Xrotation Yrotation Zrotation
								End Site
								{
									OFFSET	1	0	0
								}
							}
						}
					}
					JOINT left_clavicle
					{
						OFFSET	-43.2	22.4	-70.8
						CHANNELS 3  Xrotation Yrotation Zrotation
						JOINT left_shoulder
						{
							OFFSET	-93.9	-5.79999	48.7
							CHANNELS 3  Xrotation Yrotation Zrotation
							JOINT left_elbow
							{
								OFFSET	-291.4	-30.8	15.2
								CHANNELS 3  Xrotation Yrotation Zrotation
								JOINT left_lowarm_twist
								{
									OFFSET	-110.7	-3.89999	13.6
									CHANNELS 3  Xrotation Yrotation Zrotation
									JOINT left_hand
									{
										OFFSET	-110.7	-3.89999	13.6
										CHANNELS 3  Xrotation Yrotation Zrotation
										JOINT left_ee
										{
											OFFSET	-80.8	-5.10001	12.1
											CHANNELS 3  Xrotation Yrotation Zrotation
											End Site
											{
												OFFSET	1	0	0
											}
										}
									}
								}
							}
						}
					}
					JOINT right_clavicle
					{
						OFFSET	43.2	22.4	-70.8
						CHANNELS 3  Xrotation Yrotation Zrotation
						JOINT right_shoulder
						{
							OFFSET	93.9	-5.79999	48.7
							CHANNELS 3  Xrotation Yrotation Zrotation
							JOINT right_elbow
							{
								OFFSET	291.4	-30.8	15.2
								CHANNELS 3  Xrotation Yrotation Zrotation
								JOINT right_lowarm_twist
								{
									OFFSET	110.7	-3.89999	13.6
									CHANNELS 3  Xrotation Yrotation Zrotation
									JOINT right_hand
									{
										OFFSET	110.7	-3.89999	13.6
										CHANNELS 3  Xrotation Yrotation Zrotation
										JOINT right_ee
										{
											OFFSET	80.8	-5.10001	12.1
											CHANNELS 3  Xrotation Yrotation Zrotation
											End Site
											{
												OFFSET	1	0	0
											}
										}
									}
								}
							}
						}
					}
				}
			}
		}
	}
	JOINT left_hip
	{
		OFFSET	-82.8	-127.5	0.300001
		CHANNELS 3  Xrotation Yrotation Zrotation
		JOINT left_knee
		{
			OFFSET	-28.2	-396.7	2.2
			CHANNELS 3  Xrotation Yrotation Zrotation
			JOINT left_ankle
			{
				OFFSET	-11.7	-411.3	35.4
				CHANNELS 3  Xrotation Yrotation Zrotation
				JOINT left_toes
				{
					OFFSET	0	-60	-88.6
					CHANNELS 3  Xrotation Yrotation Zrotation
					JOINT left_foot_ee
					{
						OFFSET	-22.5	-16.5	-42.2
						CHANNELS 3  Xrotation Yrotation Zrotation
						End Site
						{
							OFFSET	1	0	0
						}
					}
				}
			}
		}
	}
	JOINT right_hip
	{
		OFFSET	82.8	-127.5	0.300001
		CHANNELS 3  Xrotation Yrotation Zrotation
		JOINT right_knee
		{
			OFFSET	28.2	-396.7	2.2
			CHANNELS 3  Xrotation Yrotation Zrotation
			JOINT right_ankle
			{
				OFFSET	11.7	-411.3	35.4
				CHANNELS 3  Xrotation Yrotation Zrotation
				JOINT right_toes
				{
					OFFSET	0	-60	-88.6
					CHANNELS 3  Xrotation Yrotation Zrotation
					JOINT right_foot_ee
					{
						OFFSET	22.5	-16.5	-42.2
						CHANNELS 3  Xrotation Yrotation Zrotation
						End Site
						{
							OFFSET	1	0	0
						}
					}
				}
			}
		}
	}
}
MOTION
Frames: 8
Frame Time: 0.02
621.751 749.988 -605.036 90.0 -80.0482 90.0 -6.41667 -0.148456 -0.399773 -6.41659 -0.122716 -0.408409 -6.41548 0.0135726 -0.426231 -6.41573 -0.0539124 -0.423025 -1.80192 2.94898 4.29907 -1.75339 1.89528 4.90985 -0.0 0.0 -0.0 7.8058 6.07095 15.0295 2.52091 -13.1722 62.8236 1.39258 -34.5978 0.433731 29.0351 0.0951669 -3.66837 -1.20484 21.9879 1.76989 -0.0 0.0 -0.0 9.56637 16.8651 -18.6374 -2.56075 10.8771 -61.5033 0.612212 16.8712 -0.0907931 -66.3103 6.07632 -5.25391 -0.470426 -28.9179 -8.74383 0.0 0.0 0.0 -3.44758 -8.96901 -2.62597 -22.5963 0.255773 3.43572 2.40587 12.3161 -0.350821 38.1714 -0.0 -0.0 -0.0 0.0 -0.0 -9.61555 -1.0697 -2.09254 -10.334 -0.285624 -1.55808 -25.372 -22.8325 -3.93631 -7.63764 0.0 0.0 0.0 0.0 0.0 
626.337 749.926 -601.542 79.6 -79.6007 80.3116 -6.40531 -0.0616263 0.13092 -6.40531 -0.0698321 0.126733 -6.40546 -0.106502 0.0979546 -6.40546 -0.089695 0.113545 -1.99132 0.928956 0.269476 -1.99022 1.46358 0.405607 -0.0 0.0 -0.0 7.38712 6.5475 14.2236 2.78904 -11.5633 63.0776 1.37808 -34.3179 0.425523 26.79 0.154361 -3.3877 -1.71806 23.4394 -0.533774 -0.0 0.0 -0.0 10.1006 18.2127 -19.7486 -4.07399 13.6625 -59.903 0.76563 20.7702 -0.140316 -67.2538 6.19616 -5.26917 -1.04214 -28.7585 -5.58261 0.0 0.0 0.0 2.64646 -2.5867 -4.83785 -32.3585 -0.0534746 4.90021 0.61597 8.87334 -0.0900117 40.1392 -0.0 -0.0 -0.0 0.0 -0.0 -11.9823 -1.19529 -2.59941 -8.77428 -0.260606 -1.32005 -24.0818 -20.9387 -3.70736 -9.84668 0.0 0.0 0.0 0.0 0.0 
627.691 748.154 -598.259 81.9656 -79.3638 82.3821 -6.78074 -0.0109917 0.310171 -6.78069 -0.0307063 0.308843 -6.78076 -0.129158 0.282214 -6.78086 -0.0829664 0.299071 -2.2558 -0.3623 0.824951 -2.25252 -1.30659 0.816091 -0.0 0.0 -0.0 7.09471 5.71879 13.7004 3.00215 -9.05558 63.4025 1.37683 -34.2938 0.42482 26.11 0.170113 -3.30227 -2.16556 22.1361 -3.74714 -0.0 0.0 -0.0 10.0012 18.4264 -19.5129 0.722822 10.9012 -59.4247 0.842718 22.6583 -0.168841 -65.9268 6.02769 -5.24714 -1.55018 -27.5052 -2.27947 0.0 0.0 0.0 7.23179 -4.09485 -5.43734 -38.5995 -0.380082 5.80123 -6.79053 12.8831 1.01026 37.7602 -0.0 -0.0 -0.0 0.0 -0.0 -12.7904 -1.98043 -2.55959 -10.5877 -0.28908 -1.59685 -16.4034 -20.1996 -2.51163 -12.6467 0.0 0.0 0.0 0.0 0.0 
628.628 744.416 -597.741 81.8815 -79.2387 81.845 -6.97905 0.21334 0.471531 -6.97894 0.182903 0.484151 -6.97703 0.0143268 0.517349 -6.97739 0.0958515 0.508594 -1.37023 -0.456056 1.65169 -1.35798 -2.14336 1.69288 -0.0 0.0 -0.0 6.88021 4.98939 13.3121 3.83677 -5.28451 64.4039 1.37017 -34.1646 0.421075 24.2631 0.207768 -3.06936 -2.61434 23.5075 -5.64214 -0.0 0.0 -0.0 10.4182 19.6309 -20.3677 2.04375 11.4649 -57.6323 1.01327 26.6536 -0.240035 -65.7164 6.00101 -5.24329 -1.44205 -27.7037 -2.9587 0.0 0.0 0.0 8.31696 -4.32893 -5.34442 -39.9417 -0.463063 5.99013 -3.5712 15.9907 0.531202 34.2335 -0.0 -0.0 -0.0 0.0 -0.0 -13.2323 -1.76989 -2.24975 -10.6412 -0.289786 -1.60502 -15.864 -19.834 -2.425 -12.295 0.0 0.0 0.0 0.0 0.0 
631.001 747.107 -594.137 80.041 -79.158 79.6417 -7.05236 0.330498 0.533015 -7.05225 0.295912 0.552965 -7.04888 0.0978097 0.619488 -7.04936 0.194417 0.596267 0.0847905 -0.625943 1.16271 0.0932253 -2.06734 1.18603 -0.0 0.0 -0.0 6.72884 3.77392 13.0423 4.18978 -1.84602 65.2784 1.27605 -32.2963 0.369489 22.4116 0.237959 -2.83479 -2.63313 23.4867 -5.76143 -0.0 0.0 -0.0 10.9372 19.7398 -21.5307 3.80374 12.1273 -55.6369 1.14417 29.5432 -0.301706 -65.73 6.00274 -5.24354 -1.55798 -28.7189 -2.78536 0.0 0.0 0.0 10.7103 -0.356445 -6.2388 -42.3057 -0.619935 6.31801 -1.27016 10.2773 0.186517 30.9987 -0.0 -0.0 -0.0 0.0 -0.0 -13.4826 -1.45848 -2.09501 -9.55523 -0.273942 -1.43914 -19.5921 -19.3435 -2.99642 -14.5425 0.0 0.0 0.0 0.0 0.0 
635.338 742.012 -587.869 74.1945 -78.3848 73.6755 -7.30336 0.298068 0.404806 -7.30331 0.271705 0.422952 -7.30099 0.115509 0.489253 -7.30127 0.191327 0.464871 0.0119584 -1.58283 1.48899 0.0337839 -4.03845 1.43454 -0.0 0.0 -0.0 6.23172 2.76769 12.0941 4.71891 0.0145912 65.4004 1.13467 -29.3385 0.297033 21.7516 0.246886 -2.75095 -3.07515 28.8435 -5.30746 -0.0 0.0 -0.0 12.3636 21.1187 -24.6864 5.94071 11.4122 -51.9124 1.17781 30.2604 -0.318474 -65.5831 5.98412 -5.2408 -2.21008 -28.6413 0.7576 0.0 0.0 0.0 11.9654 3.97904 -6.90563 -43.6486 -0.715054 6.50135 3.15994 9.24088 -0.458794 28.9046 -0.0 -0.0 -0.0 0.0 -0.0 -13.9089 -1.15384 -2.62706 -11.2006 -0.29672 -1.69058 -21.9426 -20.2966 -3.36929 -14.6403 0.0 0.0 0.0 0.0 0.0 
643.1 742.109 -579.943 69.4524 -77.2596 68.6853 -7.57347 0.294683 0.358469 -7.57344 0.271276 0.376493 -7.5714 0.128458 0.44591 -7.57162 0.197268 0.420027 -0.163322 -0.768929 3.29209 -0.11308 -4.05925 3.45345 -0.0 0.0 -0.0 5.89841 2.03183 11.4477 4.73565 0.459398 65.6118 1.00825 -26.5397 0.237787 21.7513 0.24689 -2.75092 -2.78904 28.8217 -3.77792 -0.0 0.0 -0.0 12.3561 21.1738 -24.6647 7.42126 11.8465 -51.4543 1.25092 31.7839 -0.356157 -64.3025 5.82216 -5.21485 -2.43267 -28.533 2.01077 0.0 0.0 0.0 13.2112 5.84005 -7.14311 -45.539 -0.856216 6.75562 1.67935 11.2357 -0.245055 24.9176 -0.0 -0.0 -0.0 0.0 -0.0 -14.6587 0.100633 -2.91251 -11.9731 -0.304921 -1.80883 -22.5731 -21.1326 -3.47729 -13.809 0.0 0.0 0.0 0.0 0.0 
649.43 739.196 -576.521 63.8337 -76.3083 62.8349 -7.52928 0.297455 0.400381 -7.52924 0.271376 0.418497 -7.52694 0.114767 0.485399 -7.52722 0.189985 0.461183 -0.584508 -0.569273 2.5937 -0.55443 -3.12228 2.70746 -0.0 0.0 -0.0 5.79887 1.73715 11.252 4.22947 0.788354 65.3877 0.870876 -23.3354 0.179842 20.9291 0.256658 -2.64636 -2.80815 27.4565 -4.62013 -0.0 0.0 -0.0 12.348 20.4509 -24.7019 9.141 13.114 -50.9858 1.35322 33.8339 -0.411593 -64.2741 5.81858 -5.21423 -2.86702 -27.2054 5.08023 0.0 0.0 0.0 13.9641 6.0545 -6.95355 -45.0269 -0.817142 6.68719 2.1808 5.78583 -0.317723 25.1645 -0.0 -0.0 -0.0 0.0 -0.0 -15.6608 -0.0249599 -3.54033 -11.0466 -0.294895 -1.66702 -23.2557 -22.6721 -3.60544 -14.4447 0.0 0.0 0.0 0.0 0.0 
